<?xml version="1.0" encoding="UTF-8" standalone="no"?><!DOCTYPE svg PUBLIC "-//W3C//DTD SVG 1.1//EN" "http://www.w3.org/Graphics/SVG/1.1/DTD/svg11.dtd"><svg width="24px" height="24px" viewBox="0 0 100 100" version="1.1" xmlns="http://www.w3.org/2000/svg" xmlns:xlink="http://www.w3.org/1999/xlink" xml:space="preserve" xmlns:serif="http://www.serif.com/" style="fill-rule:evenodd;clip-rule:evenodd;stroke-linejoin:round;stroke-miterlimit:1.41421;"><path id="path" d="M48.5,12c20.711,0 37.5,16.789 37.5,37.5c0,20.711 -16.789,37.5 -37.5,37.5c-20.711,0 -37.5,-16.789 -37.5,-37.5c0,-20.711 16.789,-37.5 37.5,-37.5Z" style="fill:none;"/><path id="path_1" d="M51.1,29.68c6.569,-12.48 19.705,-12.48 26.274,-6.24c6.568,6.24 6.568,18.72 0,31.2c-4.598,9.36 -16.421,18.72 -26.274,24.96c-9.853,-6.24 -21.676,-15.6 -26.274,-24.96c-6.568,-12.48 -6.568,-24.96 0,-31.2c6.569,-6.24 19.705,-6.24 26.274,6.24Z" style="fill:none;stroke:#fff;stroke-width:5px;"/></svg>