<?xml version="1.0" encoding="UTF-8" standalone="no"?><!DOCTYPE svg PUBLIC "-//W3C//DTD SVG 1.1//EN" "http://www.w3.org/Graphics/SVG/1.1/DTD/svg11.dtd"><svg width="24px" height="24px" viewBox="0 0 24 24" version="1.1" xmlns="http://www.w3.org/2000/svg" xmlns:xlink="http://www.w3.org/1999/xlink" xml:space="preserve" xmlns:serif="http://www.serif.com/" style="fill-rule:evenodd;clip-rule:evenodd;stroke-linecap:round;stroke-linejoin:round;stroke-miterlimit:1.5;"><g><g><path d="M13.864,14.797l2.501,0c2.773,0 5.024,-2.251 5.024,-5.024c0,-2.774 -2.251,-5.025 -5.024,-5.025l-8.73,0c-2.105,0 -3.91,1.298 -4.657,3.136c-0.121,0.298 -0.214,0.61 -0.277,0.933c-0.059,0.309 -1.701,8.203 -1.701,8.203c0.945,1.76 2.097,1.523 3.382,0c0,0 2.105,-2.223 3.253,-2.223l1.999,0" style="fill:none;stroke:#e1e1e1;stroke-width:1.07px;"/><path d="M21.853,11.5c-0.507,-2.513 -0.659,-3.01 -0.554,-2.683c0.097,0.299 1.701,8.203 1.701,8.203c-0.945,1.76 -2.097,1.523 -3.382,0c0,0 -2.105,-2.223 -3.253,-2.223l-2.478,0c3.665,0.073 6.991,-0.044 7.966,-3.297Z" style="fill:none;stroke:#e1e1e1;stroke-width:1.07px;"/></g><g><circle cx="15.599" cy="8.195" r="0.808" style="fill:none;stroke:#e1e1e1;stroke-width:0.51px;"/><circle cx="15.599" cy="11.5" r="0.808" style="fill:none;stroke:#e1e1e1;stroke-width:0.51px;"/><circle cx="17.61" cy="9.811" r="0.808" style="fill:none;stroke:#e1e1e1;stroke-width:0.51px;"/><circle cx="13.589" cy="9.811" r="0.808" style="fill:none;stroke:#e1e1e1;stroke-width:0.51px;"/></g><g><path d="M5.297,9.645l4.518,0" style="fill:none;stroke:#e1e1e1;stroke-width:1.07px;"/><path d="M7.556,7.387l0,4.517" style="fill:none;stroke:#e1e1e1;stroke-width:1.07px;"/></g><path d="M18.621,15.115l2.128,1.783c0.567,0.675 1.013,0.545 1.393,-0.026l-0.512,-3.455c-1.004,0.74 -2.294,1.52 -3.009,1.698Z" style="fill:none;stroke:#e1e1e1;stroke-width:0.75px;"/><path d="M19.55,15.449l1.277,1.07c0.34,0.405 0.608,0.326 0.835,-0.016l-0.307,-2.073c-0.602,0.444 -1.376,0.912 -1.805,1.019Z" style="fill:none;stroke:#e1e1e1;stroke-width:0.75px;"/><path d="M20.189,15.605l0.65,0.545c0.173,0.206 0.309,0.166 0.425,-0.008l-0.156,-1.055c-0.307,0.226 -0.7,0.464 -0.919,0.518Z" style="fill:none;stroke:#e1e1e1;stroke-width:0.75px;"/></g></svg>