<?xml version="1.0" encoding="UTF-8" standalone="no"?><!DOCTYPE svg PUBLIC "-//W3C//DTD SVG 1.1//EN" "http://www.w3.org/Graphics/SVG/1.1/DTD/svg11.dtd"><svg width="24px" height="24px" viewBox="0 0 99 99" version="1.1" xmlns="http://www.w3.org/2000/svg" xmlns:xlink="http://www.w3.org/1999/xlink" xml:space="preserve" xmlns:serif="http://www.serif.com/" style="fill-rule:evenodd;clip-rule:evenodd;stroke-linecap:round;stroke-linejoin:round;stroke-miterlimit:1.41421;"><path id="path_1" d="M72.3,41.2l0,43.7l-45.6,0l0,-70.8l45.6,0l0,9.9" style="fill:none;stroke:#fff;stroke-width:5px;"/><path id="path_2" d="M49.5,71.9c2.5,0 4.6,-2.1 4.6,-4.6l-9.2,0c0,2.5 2.1,4.6 4.6,4.6Zm13.8,-25.3c0,-5.4 -2.2,-10.2 -6.3,-12.8c-1.2,-0.8 -2.6,-1.4 -4.1,-1.7l0,-1.6c0,-1.9 -1.5,-3.4 -3.4,-3.4c-1.9,0 -3.4,1.5 -3.4,3.4l0,1.6c-6.6,1.6 -10.3,7.4 -10.3,14.5l0,11.5l-4.6,4.6l0,2.3l36.8,0l0,-2.3l-4.6,-4.6" style="fill:none;stroke:#fff;stroke-width:5px;"/></svg>