<?xml version="1.0" encoding="UTF-8" standalone="no"?><!DOCTYPE svg PUBLIC "-//W3C//DTD SVG 1.1//EN" "http://www.w3.org/Graphics/SVG/1.1/DTD/svg11.dtd"><svg width="24px" height="24px" viewBox="0 0 24 24" version="1.1" xmlns="http://www.w3.org/2000/svg" xmlns:xlink="http://www.w3.org/1999/xlink" xml:space="preserve" style="fill-rule:evenodd;clip-rule:evenodd;stroke-linecap:round;stroke-linejoin:round;stroke-miterlimit:10;"><g><g><path d="M5.675,14.526c1.116,-2.204 3.403,-3.715 6.043,-3.715c2.64,0 4.927,1.511 6.044,3.715" style="fill:none;stroke:#e1e1e1;stroke-width:1px;"/><path d="M7.467,12.313l-2.661,-2.661" style="fill:none;stroke:#e1e1e1;stroke-width:1px;"/><path d="M15.969,12.313l2.84,-2.839" style="fill:none;stroke:#e1e1e1;stroke-width:1px;"/></g><g><path d="M9.714,13.763c0,0.422 -0.342,0.763 -0.763,0.763c-0.422,0 -0.764,-0.341 -0.764,-0.763c0,-0.422 0.342,-0.763 0.764,-0.763c0.421,0 0.763,0.341 0.763,0.763" style="fill:#e1e1e1;fill-rule:nonzero;"/><path d="M15.043,13.763c0,0.422 -0.342,0.763 -0.764,0.763c-0.421,0 -0.763,-0.341 -0.763,-0.763c0,-0.422 0.342,-0.763 0.763,-0.763c0.422,0 0.764,0.341 0.764,0.763" style="fill:#e1e1e1;fill-rule:nonzero;"/></g></g><path d="M20.308,12l0,-5.844l-17.001,0l0,11.688l17.001,0" style="fill:none;stroke:#e1e1e1;stroke-width:1px;stroke-miterlimit:1.5;"/></svg>