<?xml version="1.0" encoding="UTF-8" standalone="no"?><!DOCTYPE svg PUBLIC "-//W3C//DTD SVG 1.1//EN" "http://www.w3.org/Graphics/SVG/1.1/DTD/svg11.dtd"><svg width="24px" height="24px" viewBox="0 0 24 24" version="1.1" xmlns="http://www.w3.org/2000/svg" xmlns:xlink="http://www.w3.org/1999/xlink" xml:space="preserve" style="fill-rule:evenodd;clip-rule:evenodd;stroke-linecap:round;stroke-linejoin:round;stroke-miterlimit:10;"><g><g><path d="M3.923,15.248c1.435,-2.834 4.375,-4.777 7.77,-4.777c3.394,0 6.334,1.943 7.77,4.777" style="fill:none;stroke:#e1e1e1;stroke-width:1px;"/><path d="M6.227,12.402l-3.421,-3.42" style="fill:none;stroke:#e1e1e1;stroke-width:1px;"/><path d="M17.158,12.402l3.651,-3.65" style="fill:none;stroke:#e1e1e1;stroke-width:1px;"/></g><g><path d="M9.116,14.267c0,0.542 -0.439,0.981 -0.981,0.981c-0.542,0 -0.982,-0.439 -0.982,-0.981c0,-0.543 0.44,-0.982 0.982,-0.982c0.542,0 0.981,0.439 0.981,0.982" style="fill:#e1e1e1;fill-rule:nonzero;"/><path d="M15.967,14.267c0,0.542 -0.44,0.981 -0.981,0.981c-0.543,0 -0.982,-0.439 -0.982,-0.981c0,-0.543 0.439,-0.982 0.982,-0.982c0.541,0 0.981,0.439 0.981,0.982" style="fill:#e1e1e1;fill-rule:nonzero;"/></g></g></svg>