<svg
    xmlns="http://www.w3.org/2000/svg"
    viewBox="0 0 99 99" width="24px" height="24px">
    <path
        id="path_1"
        d="M 63.2 21.8 M 63.2 21.8 C 58.1 19.9 53.6 17 49.5 13 C 41.4 20.8 31.9 24.4 19.4 24.4 C 19.4 44.8 15.2 74.1 49.5 86 C 83.8 74.1 79.6 44.8 79.6 24.4 L 79.6 24.4"
       style="fill:none;stroke:#e1e1e1;stroke-width:4.5px;"
        />
    <path
        id="path_2"
        d="M 69.7 32.6 C 61.3 32.6 54.9 30.2 49.5 24.9 C 44.1 30.2 37.7 32.6 29.3 32.6 C 29.3 46.3 26.5 66 49.5 74 C 72.6 66 69.7 46.4 69.7 32.6 L 69.7 32.6 Z"
       style="fill:none;stroke:#e1e1e1;stroke-width:4.5px;"
        />
    <path
        id="path_3"
        d="M 31.3 37.1 L 67.3 49.9"
       style="fill:none;stroke:#e1e1e1;stroke-width:4.5px;"
        />
    <path
        id="path_4"
        d="M 31.3 43.5 L 66.7 56.2"
       style="fill:none;stroke:#e1e1e1;stroke-width:4.5px;"
        />
    <path
        id="path_5"
        d="M 31.1 50.3 L 64.8 63"
       style="fill:none;stroke:#e1e1e1;stroke-width:4.5px;"
        />
</svg>
