<?xml version="1.0" encoding="UTF-8" standalone="no"?><!DOCTYPE svg PUBLIC "-//W3C//DTD SVG 1.1//EN" "http://www.w3.org/Graphics/SVG/1.1/DTD/svg11.dtd"><svg width="24px" height="24px" viewBox="0 0 24 24" version="1.1" xmlns="http://www.w3.org/2000/svg" xmlns:xlink="http://www.w3.org/1999/xlink" xml:space="preserve" xmlns:serif="http://www.serif.com/" style="fill-rule:evenodd;clip-rule:evenodd;stroke-linecap:round;stroke-linejoin:round;stroke-miterlimit:1.5;"><rect x="0" y="0" width="24" height="24" style="fill:none;"/><g><g><g><path d="M13.864,14.797l2.501,0c2.773,0 5.024,-2.251 5.024,-5.024c0,-2.774 -2.251,-5.025 -5.024,-5.025l-8.73,0c-2.105,0 -3.91,1.298 -4.657,3.136c-0.121,0.298 -0.214,0.61 -0.277,0.933c-0.059,0.309 -1.701,8.203 -1.701,8.203c0.945,1.76 2.097,1.523 3.382,0c0,0 2.105,-2.223 3.253,-2.223l1.999,0" style="fill:none;stroke:#e1e1e1;stroke-width:1.07px;"/><path d="M2.774,8.498c0.565,-2.157 2.529,-3.75 4.861,-3.75l8.73,0c2.105,0 3.91,1.298 4.657,3.136c0.121,0.298 0.214,0.61 0.277,0.933c0.059,0.309 1.701,8.203 1.701,8.203c-0.945,1.76 -2.097,1.523 -3.382,0c0,0 -2.105,-2.223 -3.253,-2.223l-2.478,0c3.665,0.073 6.991,-0.044 7.966,-3.297c-0.345,-2.499 -0.979,-4.081 -1.783,-5.12c-0.383,-0.403 -0.83,-0.74 -1.322,-1.031c-0.741,-0.413 -1.532,-0.625 -2.383,-0.601l-3.118,0l-6.572,0.092c-0.505,0.125 -1.058,0.351 -1.638,0.632c-1.192,0.739 -1.965,1.736 -2.263,3.026Z" style="fill:#e1e1e1;stroke:#e1e1e1;stroke-width:1.07px;"/></g><g><circle cx="15.599" cy="8.195" r="0.808" style="fill:none;stroke:#e1e1e1;stroke-width:0.51px;"/><circle cx="15.599" cy="11.5" r="0.808" style="fill:none;stroke:#e1e1e1;stroke-width:0.51px;"/><circle cx="17.61" cy="9.811" r="0.808" style="fill:none;stroke:#e1e1e1;stroke-width:0.51px;"/><circle cx="13.589" cy="9.811" r="0.808" style="fill:none;stroke:#e1e1e1;stroke-width:0.51px;"/></g><g><path d="M5.297,9.645l4.518,0" style="fill:#e1e1e1;stroke:#e1e1e1;stroke-width:1.07px;"/><path d="M7.556,7.387l0,4.517" style="fill:none;stroke:#e1e1e1;stroke-width:1.07px;"/></g></g></g></svg>