<?xml version="1.0" encoding="UTF-8" standalone="no"?><!DOCTYPE svg PUBLIC "-//W3C//DTD SVG 1.1//EN" "http://www.w3.org/Graphics/SVG/1.1/DTD/svg11.dtd"><svg width="24px" height="24px" viewBox="0 0 24 24" version="1.1" xmlns="http://www.w3.org/2000/svg" xmlns:xlink="http://www.w3.org/1999/xlink" xml:space="preserve" style="fill-rule:evenodd;clip-rule:evenodd;stroke-linecap:round;stroke-linejoin:round;stroke-miterlimit:1.5;"><path id="Shape" d="M22,14.707l0,-8.707c0,-1.11 -0.89,-2 -2,-2l-16,0c-1.11,0 -1.99,0.89 -1.99,2l-0.01,12c0,1.11 0.89,2 2,2l16,0c1.11,0 2,-0.89 2,-2l0,1m0,-1l-2,0l-16,0l0,-12l16,0l0,9.308l2,0"/><circle cx="7.5" cy="14.5" r="1.5" style="fill:none;stroke:#e1e1e1;stroke-width:1px;"/><circle cx="12" cy="14.5" r="1.5" style="fill:none;stroke:#e1e1e1;stroke-width:1px;"/><circle cx="16.5" cy="14.5" r="1.5" style="fill:none;stroke:#e1e1e1;stroke-width:1px;"/></svg>