<?xml version="1.0" encoding="UTF-8" standalone="no"?><!DOCTYPE svg PUBLIC "-//W3C//DTD SVG 1.1//EN" "http://www.w3.org/Graphics/SVG/1.1/DTD/svg11.dtd"><svg width="24px" height="24px" viewBox="0 0 24 24" version="1.1" xmlns="http://www.w3.org/2000/svg" xmlns:xlink="http://www.w3.org/1999/xlink" xml:space="preserve" style="fill-rule:evenodd;clip-rule:evenodd;stroke-linecap:round;stroke-linejoin:round;stroke-miterlimit:10;"><g><g id="Layer-1"><path d="M20.728,13.37l0,-2.74l-1.408,0c-0.212,-1.024 -0.633,-1.971 -1.217,-2.795l1.037,-1.037l-1.938,-1.938l-1.065,1.065c-0.822,-0.547 -1.759,-0.936 -2.767,-1.123l0,-1.529l-2.74,0l0,1.529c-1.008,0.187 -1.945,0.576 -2.767,1.123l-1.065,-1.065l-1.938,1.938l1.037,1.037c-0.584,0.824 -1.005,1.771 -1.217,2.795l-1.407,0l0,2.74l1.352,0c0.174,1.066 0.574,2.055 1.149,2.918l-0.914,0.914l1.938,1.938l0.885,-0.885c0.865,0.612 1.865,1.045 2.947,1.246l0,1.227l2.74,0l0,-1.227c1.082,-0.201 2.082,-0.634 2.946,-1.246l0.886,0.885l1.938,-1.938l-0.914,-0.914c0.575,-0.863 0.975,-1.852 1.149,-2.918l1.353,0Z" style="fill:none;stroke:#e1e1e1;stroke-width:1px;"/><path d="M12,7.329c2.58,0 4.671,2.091 4.671,4.671c0,0.723 -0.164,1.408 -0.458,2.02" style="fill:none;stroke:#e1e1e1;stroke-width:1px;"/><path d="M8.324,9.117c0.44,-0.56 1.005,-1.017 1.653,-1.329" style="fill:none;stroke:#e1e1e1;stroke-width:1px;"/><path d="M14.265,16.086c-0.671,0.373 -1.443,0.585 -2.265,0.585c-2.58,0 -4.671,-2.091 -4.671,-4.671" style="fill:none;stroke:#e1e1e1;stroke-width:1px;"/></g></g></svg>