<?xml version="1.0" encoding="UTF-8" standalone="no"?>
<!DOCTYPE svg PUBLIC "-//W3C//DTD SVG 1.1//EN" "http://www.w3.org/Graphics/SVG/1.1/DTD/svg11.dtd">
<svg width="100%" height="100%" viewBox="0 0 417 417" version="1.1" xmlns="http://www.w3.org/2000/svg" xmlns:xlink="http://www.w3.org/1999/xlink" xml:space="preserve" style="fill-rule:evenodd;clip-rule:evenodd;stroke-miterlimit:10;">
    <g transform="matrix(4.16667,0,0,4.16667,0,0)">
        <path d="M50,99C77.062,99 99,77.062 99,50C99,22.938 77.062,1 50,1C22.938,1 1,22.938 1,50C1,77.062 22.938,99 50,99Z" style="fill:none;stroke:rgb(3,5,5);stroke-width:1px;"/>
    </g>
    <g transform="matrix(4.16667,0,0,4.16667,0,0)">
        <path d="M50,99C77.062,99 99,77.062 99,50C99,22.938 77.062,1 50,1C22.938,1 1,22.938 1,50C1,77.062 22.938,99 50,99Z" style="fill:none;stroke:rgb(3,5,5);stroke-width:1px;"/>
    </g>
    <g transform="matrix(4.16667,0,0,4.16667,0,0)">
        <path d="M28.196,41.049L28.39,41.078L28.58,41.126L28.765,41.192L28.943,41.276L29.111,41.377L29.269,41.494L29.414,41.625L29.546,41.771L29.663,41.928L29.764,42.097L29.848,42.274L29.914,42.459L29.961,42.649L29.99,42.844L30,43.04L29.99,43.236L29.961,43.43L29.914,43.62L29.848,43.805L29.764,43.982L29.663,44.151L29.546,44.308L29.414,44.454L29.269,44.586L29.111,44.703L28.943,44.803L28.765,44.887L28.58,44.953L28.39,45.001L28.196,45.03L28,45.04L25.155,45.04L40.51,56.196L34.645,74.247L50,63.09L65.355,74.247L64.999,73.151L64.947,72.961L64.915,72.768L64.901,72.572L64.907,72.376L64.932,72.181L64.976,71.99L65.038,71.804L65.119,71.625L65.216,71.454L65.33,71.294L65.459,71.146L65.602,71.012L65.757,70.892L65.924,70.788L66.099,70.7L66.283,70.63L66.472,70.579L66.666,70.546L66.862,70.533L67.058,70.539L67.252,70.564L67.444,70.608L67.63,70.67L67.809,70.751L67.979,70.848L68.139,70.962L68.287,71.091L68.422,71.234L68.542,71.389L68.646,71.555L68.733,71.731L68.803,71.915L72.963,84.719L50,68.035L27.037,84.719L35.808,57.724L12.844,41.04L28,41.04L28.196,41.049Z" style="fill:rgb(f1,f1,f1);"/>
    </g>
    <g transform="matrix(4.16667,0,0,4.16667,0,0)">
        <path d="M58.771,41.04L87.155,41.04L64.192,57.724L65.295,61.118L65.343,61.291L65.375,61.468L65.391,61.646L65.391,61.826L65.375,62.004L65.343,62.181L65.295,62.354L65.232,62.522L65.154,62.684L65.062,62.838L64.957,62.983L64.839,63.118L64.709,63.242L64.569,63.354L64.419,63.453L64.261,63.538L64.096,63.609L63.925,63.664L63.75,63.704L63.572,63.728L63.393,63.736L63.214,63.728L63.036,63.704L62.861,63.664L62.69,63.609L62.525,63.538L62.367,63.453L62.217,63.354L62.077,63.242L61.947,63.118L61.829,62.983L61.724,62.838L61.632,62.684L61.554,62.522L61.491,62.354L59.49,56.196L74.845,45.04L55.865,45.04L50,26.989L44.135,45.04L39.25,45.04L39.071,45.032L38.893,45.008L38.718,44.968L38.547,44.913L38.382,44.842L38.224,44.757L38.074,44.658L37.934,44.546L37.804,44.422L37.686,44.287L37.581,44.142L37.489,43.988L37.411,43.826L37.348,43.658L37.3,43.485L37.268,43.309L37.252,43.13L37.252,42.95L37.268,42.772L37.3,42.595L37.348,42.422L37.411,42.254L37.489,42.092L37.581,41.938L37.686,41.793L37.804,41.658L37.934,41.534L38.074,41.422L38.224,41.323L38.382,41.238L38.547,41.168L38.718,41.112L38.893,41.072L39.071,41.048L39.25,41.04L41.229,41.04L50,14.045L58.771,41.04Z" style="fill:rgb(f1,f1,f1);"/>
    </g>
    <g transform="matrix(0.47355,0,0,0.47355,109.677,116.677)">
        <path d="M278.753,302.219L288.162,331.178L208.333,273.178L128.503,331.178L158.995,237.332L79.166,179.332L116.666,179.332L163.542,179.334L177.842,179.334L208.333,85.488L238.825,179.334L337.5,179.334L257.671,237.334L264.138,257.234" style="fill:rgb(f1,f1,f1);"/>
    </g>
</svg>
