<?xml version="1.0" encoding="UTF-8" standalone="no"?>
<!DOCTYPE svg PUBLIC "-//W3C//DTD SVG 1.1//EN" "http://www.w3.org/Graphics/SVG/1.1/DTD/svg11.dtd">
<svg width="24px" height="24px" viewBox="0 0 100 100" version="1.1" xmlns="http://www.w3.org/2000/svg"  style="fill-rule:evenodd;clip-rule:evenodd;stroke-linecap:round;stroke-linejoin:round;stroke-miterlimit:10;">
    <path d="M30.042,48.117L23.64,48.117C23.64,60.958 33.884,71.577 46.234,73.423L46.234,85.773M53.765,85.773L53.765,73.423C66.117,71.615 76.359,60.996 76.359,48.117L69.958,48.117M55.211,15.493C53.653,14.684 51.88,14.226 50,14.226C43.749,14.226 38.703,19.273 38.703,25.523L38.703,48.117C38.703,54.368 43.749,59.414 50,59.414C56.25,59.414 61.259,54.368 61.259,48.117L61.297,25.523C61.297,24.04 61.012,22.625 60.495,21.328" style="fill:none;stroke:#f1f1f1;stroke-width:5px;"/>
</svg>
